<svg width="980" height="980" viewBox="0 0 980 980" fill="none" xmlns="http://www.w3.org/2000/svg">
<path d="M490 613.8L149.9 953.9C115.3 988.5 59.8 988.6 25.6 954.4C-8.79999 920 -8.39998 864.6 26.1 830.1L366.2 490L26.1 149.9C-8.49998 115.3 -8.59999 59.8 25.6 25.6C60 -8.80002 115.4 -8.40001 149.9 26.1L490 366.2L830.1 26.1C864.7 -8.50001 920.2 -8.60002 954.4 25.6C988.8 60 988.4 115.4 953.9 149.9L613.8 490L953.9 830.1C988.5 864.7 988.6 920.2 954.4 954.4C920 988.8 864.6 988.4 830.1 953.9L490 613.8Z" fill="white"/>
</svg>
