<svg width="24" height="25" viewBox="0 0 24 25" fill="none" xmlns="http://www.w3.org/2000/svg">
<path fill-rule="evenodd" clip-rule="evenodd" d="M21.2959 21.5665L20.2351 17.6102C20.1743 17.3885 20.2047 17.1494 20.309 16.9407C21.2351 15.0842 21.5438 12.867 20.9742 10.554C20.2003 7.42374 17.757 4.91081 14.6354 4.08042C13.7833 3.85869 12.9442 3.75 12.1312 3.75C6.29665 3.75 1.74035 9.22365 3.31418 15.3147C4.04458 18.1319 7.05314 21.0492 9.88344 21.7361C10.6486 21.923 11.4008 22.01 12.1312 22.01C13.7006 22.01 15.1701 21.6057 16.4614 20.9101C16.6049 20.8318 16.7657 20.7883 16.9222 20.7883C17.0005 20.7883 17.0787 20.797 17.157 20.8188L21.009 21.8491C21.0307 21.8535 21.0525 21.8578 21.0699 21.8578C21.2177 21.8578 21.3351 21.7187 21.2959 21.5665ZM19.0178 17.9363L19.6178 20.1753L17.4831 19.6058C17.3005 19.5579 17.1135 19.5319 16.9222 19.5319C16.557 19.5319 16.1875 19.6275 15.8571 19.8058C14.6963 20.4318 13.4441 20.7492 12.1312 20.7492C11.4834 20.7492 10.8269 20.6666 10.1791 20.5101C7.78354 19.9275 5.14453 17.3537 4.53586 14.9973C3.90111 12.5365 4.40109 10.0106 5.90536 8.06719C7.40964 6.1238 9.6791 5.01081 12.1312 5.01081C12.8529 5.01081 13.5876 5.10646 14.3137 5.3021C16.9961 6.01511 19.0787 8.14544 19.7525 10.8584C20.2264 12.7713 20.0308 14.6799 19.183 16.3798C18.9395 16.8668 18.8787 17.4189 19.0178 17.9363Z" fill="white" stroke="white" stroke-width="0.7"/>
<circle cx="12" cy="13" r="8" fill="white"/>
<path d="M18.3854 17.7728C18.3764 18.1901 18.4733 18.8725 17.9272 18.8725C17.8522 18.8725 17.2403 18.8725 17.5607 18.8725" stroke="white" stroke-width="3" stroke-linecap="round"/>
<path d="M18.2938 19.239C17.7073 18.9713 17.2568 18.5268 16.6442 18.3226" stroke="white" stroke-width="3" stroke-linecap="round"/>
</svg>
