<svg width="23" height="23" viewBox="0 0 23 23" fill="none" xmlns="http://www.w3.org/2000/svg">
<path d="M9.71028 9.71052C9.69898 9.72182 9.68974 9.73516 9.67993 9.74795C9.66938 9.76185 9.65862 9.77523 9.65005 9.7905C9.64786 9.79418 9.64473 9.79694 9.64288 9.80065L6.4008 16.0561C6.30796 16.235 6.36116 16.4776 6.5305 16.647C6.69983 16.8163 6.94245 16.8695 7.12136 16.7766L13.3765 13.5345C13.3803 13.5325 13.3832 13.5293 13.3869 13.5271C13.402 13.5186 13.4151 13.5078 13.4288 13.4975C13.4418 13.4875 13.4551 13.4782 13.4666 13.4668C13.478 13.4553 13.4873 13.442 13.4972 13.4291C13.5076 13.4153 13.5184 13.4023 13.5268 13.3872C13.529 13.3835 13.5323 13.3806 13.5343 13.3767L16.7764 7.12125C16.8692 6.94235 16.8158 6.69954 16.6467 6.5304C16.4775 6.36125 16.2349 6.30805 16.0558 6.4007L9.80038 9.64277C9.79651 9.64478 9.79376 9.64791 9.79023 9.64995C9.77496 9.65851 9.76158 9.66928 9.74768 9.67983C9.73493 9.68998 9.72158 9.69922 9.71028 9.71052ZM15.1228 8.05425L12.9212 12.3024L10.8748 10.2561L15.1228 8.05425Z" fill="black"/>
<path d="M1.91309 11.5C1.91309 6.20531 6.20531 1.91309 11.5 1.91309V1.91309C16.7948 1.91309 21.087 6.20531 21.087 11.5V11.5C21.087 16.7948 16.7948 21.087 11.5 21.087V21.087C6.20531 21.087 1.91309 16.7948 1.91309 11.5V11.5Z" stroke="black" stroke-width="1.8"/>
</svg>
