<svg width="23" height="23" viewBox="0 0 23 23" fill="none" xmlns="http://www.w3.org/2000/svg">
<path d="M2 11.587C2 6.29223 6.29223 2 11.587 2V2C16.8817 2 21.1739 6.29223 21.1739 11.587V11.587C21.1739 16.8817 16.8817 21.1739 11.587 21.1739V21.1739C6.29223 21.1739 2 16.8817 2 11.587V11.587Z" stroke="black" stroke-width="1.8"/>
<circle cx="11.5" cy="11.5" r="9.5" fill="black"/>
<path d="M10.0581 10.0582C10.0468 10.0695 10.0375 10.0828 10.0277 10.0956C10.0172 10.1095 10.0064 10.1229 9.99783 10.1382C9.99564 10.1418 9.99251 10.1446 9.99065 10.1483L6.74858 16.4037C6.65574 16.5827 6.70894 16.8253 6.87828 16.9946C7.04761 17.1639 7.29023 17.2171 7.46914 17.1243L13.7242 13.8822C13.7281 13.8802 13.731 13.8769 13.7347 13.8747C13.7498 13.8663 13.7628 13.8555 13.7766 13.8451C13.7895 13.8352 13.8029 13.8259 13.8143 13.8145C13.8258 13.803 13.835 13.7897 13.845 13.7767C13.8554 13.763 13.8662 13.7499 13.8746 13.7348C13.8768 13.7311 13.8801 13.7282 13.8821 13.7243L17.1242 7.46891C17.217 7.29001 17.1636 7.0472 16.9945 6.87805C16.8253 6.7089 16.5827 6.6557 16.4036 6.74836L10.1482 9.99043C10.1443 9.99244 10.1415 9.99557 10.138 9.99761C10.1227 10.0062 10.1094 10.0169 10.0955 10.0275C10.0827 10.0376 10.0694 10.0469 10.0581 10.0582ZM15.4706 8.40191L13.269 12.6501L11.2226 10.6037L15.4706 8.40191Z" fill="white"/>
</svg>
