<svg width="24" height="24" viewBox="0 0 24 24" fill="none" xmlns="http://www.w3.org/2000/svg">
<path d="M11.4995 21.2609C11.1062 21.2609 10.7307 21.1362 10.4133 20.9001C8.2588 19.3012 3.10938 15.3239 1.81755 12.9143C0.127895 9.76543 1.14258 5.72131 4.07489 3.89968C5.02253 3.31177 6.09533 3 7.18601 3C8.81755 3 10.3508 3.66808 11.4995 4.85726C12.6483 3.66808 14.1815 3 15.8131 3C16.9038 3 17.9766 3.31177 18.9242 3.89968C21.8565 5.72131 22.8712 9.76543 21.186 12.9143C19.8942 15.3239 14.7448 19.3012 12.5902 20.9001C12.2684 21.1362 11.8929 21.2609 11.4995 21.2609ZM7.18601 4.33616C6.34565 4.33616 5.5187 4.57667 4.78562 5.03096C2.43888 6.49183 1.63428 9.74316 2.99763 12.2819C4.19558 14.5177 9.58639 18.6242 11.209 19.8267C11.3789 19.9514 11.6158 19.9514 11.7856 19.8267C13.4082 18.6197 18.799 14.5133 19.997 12.2819C21.3603 9.74316 20.5557 6.48738 18.209 5.03096C17.4804 4.57667 16.6534 4.33616 15.8131 4.33616C14.3425 4.33616 12.9657 5.04878 12.0359 6.28696L11.4995 7.00848L10.9631 6.28696C10.0334 5.04878 8.6611 4.33616 7.18601 4.33616Z" fill="#ED4956" stroke="#ED4956" stroke-width="0.6"/>
<path d="M10.4324 9.60908C10.3031 9.28185 10.3063 8.86395 10.1395 8.56297C9.83485 8.01308 8.80015 7.74926 8.22064 7.72608C8.0984 7.72119 7.98225 7.74912 8.19673 7.74401C8.50045 7.73678 8.73991 7.58474 8.84831 7.29568C9.1067 6.60663 8.68519 6.38107 8.05327 6.38107C7.56596 6.38107 7.97701 6.43293 8.16385 6.35119C8.23939 6.31814 8.23937 6.22308 8.21467 6.15392C8.13314 5.92566 7.73813 5.9587 7.55412 5.95366C6.92079 5.93631 5.88155 5.79458 5.32142 6.17783C4.9519 6.43066 4.4993 6.604 4.24541 6.98483C3.85508 7.57034 3.81501 8.14774 3.81501 8.82898C3.81501 9.34191 3.80721 9.87698 3.95549 10.3712C4.18424 11.1337 4.64134 11.8698 5.09426 12.5143C5.38061 12.9218 5.66743 13.3317 5.95506 13.7397C6.31005 14.2433 6.63118 14.8078 7.04601 15.2641C7.48307 15.7448 7.96619 16.3033 8.49562 16.6838C8.71238 16.8396 8.9802 16.9801 9.16812 17.168C9.34446 17.3443 9.42249 17.4627 9.66727 17.5715C9.93275 17.6895 10.1706 17.9522 10.4205 18.1095C10.6722 18.268 11.2805 18.3247 11.5861 18.3247C12.0509 18.3247 12.8017 18.484 13.1493 18.1364C13.3814 17.9043 13.608 17.6641 13.8159 17.4101C14.0763 17.0917 14.4055 16.861 14.5989 16.4955C14.8328 16.0537 15.1777 15.5455 15.6391 15.3358C16.0225 15.1615 16.5374 14.8473 16.8287 14.5318C17.0175 14.3272 17.288 14.2872 17.4952 14.1044C17.6724 13.948 17.8729 13.7894 18.0422 13.6202C18.5109 13.1514 19.0451 12.6203 19.3094 11.9942C19.3998 11.7803 19.4599 11.5661 19.5545 11.3546C19.5972 11.2592 19.5587 11.1497 19.6143 11.0587C19.7009 10.917 19.7842 10.8048 19.7936 10.6313C19.8252 10.0527 19.9012 9.49649 19.9012 8.91267C19.9012 8.38457 19.5092 7.85197 19.3363 7.35246C19.1758 6.88864 18.7675 6.38908 18.3231 6.17783C17.8842 5.96915 17.3821 5.64418 16.8765 5.62787C16.3756 5.61172 15.8046 5.51976 15.3223 5.38577C14.8171 5.24544 14.2175 5.27952 13.7352 5.47245C13.3473 5.6276 12.6652 5.81982 12.3931 6.17783C12.1848 6.45193 12.0179 6.75886 11.7535 6.97288C11.586 7.10845 11.2118 7.14321 11.0063 7.13428C10.8582 7.12784 10.7826 7.0203 10.6954 6.9131C10.5357 6.7165 10.3608 6.57352 10.1096 6.51856C9.27848 6.33675 8.95902 7.05622 8.32824 7.40029C7.59555 7.79994 6.71001 7.92159 6.09853 8.53308C5.87576 8.75585 5.85362 9.17214 5.76377 9.45964C5.64992 9.82396 5.68901 10.2559 5.69802 10.6313C5.71875 11.4952 6.3304 11.8472 6.75011 12.5143C6.94939 12.831 6.91714 13.1882 6.9952 13.5395C7.12786 14.1365 7.33053 14.8307 7.69161 15.3298C7.99864 15.7543 8.41516 15.8776 8.86923 16.092C9.65438 16.4628 10.5748 16.3341 11.4247 16.3341C11.9348 16.3341 12.4449 16.3341 12.9551 16.3341C13.4276 16.3341 13.6651 16.1528 14.0251 15.8499C14.8037 15.1949 15.2664 14.2675 16.0067 13.5813C17.2986 12.3839 18.0019 10.5592 18.353 8.87381C18.402 8.63879 18.4233 8.37084 18.3829 8.13257C18.3183 7.75241 17.9032 7.66759 17.5938 7.54674C17.2363 7.40709 16.8093 7.45708 16.4341 7.45708C15.9111 7.45708 15.388 7.45708 14.865 7.45708C13.9393 7.45708 13.0092 7.39724 12.1002 7.56767C11.7591 7.63163 11.4312 7.88124 11.1348 8.04589C10.6689 8.30472 10.1978 8.53625 9.78682 8.87381C9.04439 9.48367 6.94889 11.043 8.3133 12.0032C8.48062 12.1209 8.68193 12.1602 8.86027 12.2572C9.06661 12.3696 9.24342 12.5029 9.46402 12.592C10.0628 12.8338 10.7021 12.8909 11.341 12.8909C11.8542 12.8909 12.4275 12.9593 12.9341 12.858C13.1789 12.8091 13.405 12.6954 13.6425 12.6219C13.9077 12.5398 14.2005 12.5063 14.4555 12.3947C15.2576 12.0438 16.0972 11.1753 16.2548 10.3085C16.2967 10.0779 16.3608 9.80892 16.1771 9.62104C15.8904 9.32781 15.3774 9.17868 14.9755 9.17868C14.3741 9.17868 13.7647 9.14985 13.1643 9.18466C12.6344 9.21537 12.074 9.49113 11.613 9.74358C11.3577 9.88341 11.0962 9.97352 10.8867 10.1829C10.4997 10.57 10.2207 11.0605 9.93627 11.522C9.56065 12.1313 9.55282 12.7981 9.26078 13.4289C9.18435 13.594 9.08742 13.8088 9.08742 13.9908C9.08742 14.5689 10.1805 14.5436 10.5789 14.5557C11.2588 14.5763 11.8048 14.4882 12.423 14.1791C13.1155 13.8329 13.8595 13.5568 13.9952 12.6936C14.0754 12.1832 14.256 11.6608 14.1865 11.1394C14.1326 10.7354 13.7307 10.5541 13.3914 10.428C13.0979 10.319 12.6471 10.3051 12.3513 10.3981C12.1031 10.4762 11.8967 10.6213 11.7595 10.8435C11.482 11.2927 12.3355 11.2691 12.5755 11.2978C13.1525 11.3668 13.8239 11.4688 14.4017 11.3367C14.4981 11.3146 14.9332 11.0633 14.6408 10.9601C14.0397 10.7479 13.1932 10.8849 12.5904 11.0198C12.5682 11.0248 11.5966 11.2957 11.7386 11.4293C12.0039 11.6791 13.6281 11.3637 13.5857 10.8764C13.5398 10.3478 11.8321 10.9789 11.885 11.1693C11.9348 11.3485 12.5474 11.0722 12.6024 11.0437C13.0189 10.8278 13.197 10.4704 13.2181 10.0096C13.2321 9.70407 12.9384 9.52156 12.6502 9.53735C12.2535 9.55908 11.8535 9.87536 11.7057 10.2367C11.6205 10.445 11.7196 10.47 11.9179 10.4221C12.3405 10.3198 12.7566 10.064 12.9132 9.63897C13.3161 8.54544 11.4253 8.76756 10.8957 9.04119C10.6432 9.17165 10.6578 9.22394 10.5669 9.42377C10.4748 9.62643 10.2888 9.79338 10.2232 10.0066C10.0633 10.5262 11.6024 10.3623 11.9388 10.3623" stroke="#ED4956" stroke-width="3" stroke-linecap="round"/>
</svg>
