<svg width="65" height="65" viewBox="0 0 65 65" fill="none" xmlns="http://www.w3.org/2000/svg">
<circle cx="32.5" cy="32.5" r="31" stroke="black" stroke-width="3"/>
<path d="M32.9988 49C32.3245 49 31.6809 48.7815 31.1368 48.3678C27.4434 45.5659 18.616 38.5961 16.4015 34.3737C13.505 28.8556 15.2444 21.7688 20.2711 18.5766C21.8956 17.5463 23.7347 17 25.6044 17C28.4012 17 31.0295 18.1707 32.9988 20.2546C34.9681 18.1707 37.5964 17 40.3933 17C42.263 17 44.1021 17.5463 45.7265 18.5766C50.7533 21.7688 52.4927 28.8556 49.6039 34.3737C47.3893 38.5961 38.5619 45.5659 34.8685 48.3678C34.3168 48.7815 33.6732 49 32.9988 49ZM25.6044 19.3415C24.1638 19.3415 22.7462 19.7629 21.4895 20.559C17.4666 23.119 16.0873 28.8166 18.4244 33.2654C20.478 37.1834 29.7192 44.3795 32.5008 46.4868C32.7919 46.7054 33.1981 46.7054 33.4892 46.4868C36.2708 44.3717 45.512 37.1756 47.5656 33.2654C49.9027 28.8166 48.5234 23.1112 44.5005 20.559C43.2515 19.7629 41.8339 19.3415 40.3933 19.3415C37.8723 19.3415 35.5122 20.5902 33.9184 22.76L32.9988 24.0244L32.0793 22.76C30.4855 20.5902 28.133 19.3415 25.6044 19.3415Z" fill="black" stroke="black" stroke-width="0.3"/>
</svg>
