<svg width="24" height="24" viewBox="0 0 24 24" fill="none" xmlns="http://www.w3.org/2000/svg">
<path d="M2.45307 11.751L11.9773 2.02175L21.5015 11.751C21.7906 12.0463 21.9545 12.4468 21.9545 12.8711V20.4556C21.9545 20.7747 21.7037 21 21.4427 21H15.964C15.713 21 15.4721 20.7849 15.4721 20.476V15.8886C15.4721 13.9497 13.9267 12.34 11.9773 12.34C10.0279 12.34 8.48244 13.9497 8.48244 15.8886V20.476C8.48244 20.7849 8.24156 21 7.99053 21H2.51187C2.25085 21 2 20.7747 2 20.4556V12.8711C2 12.4468 2.16397 12.0463 2.45307 11.751Z" stroke="black" stroke-width="2"/>
<path d="M11.813 4.17896C11.0693 4.76492 11.283 5.77029 10.6416 6.45055C10.4288 6.67631 10.2512 6.96318 10.048 7.20247C9.69417 7.6192 9.28554 7.96393 8.89242 8.34222C8.18886 9.01923 7.28802 9.5032 6.60896 10.2022C6.03943 10.7885 5.4592 11.3087 4.97453 11.9752C4.66928 12.3949 4.17883 12.7118 3.93767 13.1941C3.51033 14.0487 3.6923 15.2807 3.6923 16.2176C3.6923 17.0539 3.6923 17.8903 3.6923 18.7266C3.6923 18.8318 3.63838 19.1247 3.70813 19.2094C3.90339 19.4465 4.86637 19.2807 5.1724 19.2807C5.41484 19.2807 5.6612 19.319 5.87683 19.1936C6.10009 19.0638 6.43554 19.0162 6.605 18.8256C6.74257 18.6708 6.89786 18.6441 6.89786 18.3863C6.89786 18.1752 6.89786 17.9642 6.89786 17.7531C6.89786 17.2652 6.39884 16.7408 6.13011 16.3601C5.42163 15.3564 6.47589 14.206 7.1828 13.5384C7.62115 13.1244 7.93513 12.4013 8.27902 11.9079C8.52559 11.5541 8.76903 11.0427 9.11404 10.7761C9.42384 10.5367 9.65808 10.4125 9.88971 10.0756C10.3018 9.47613 10.688 8.86966 11.0611 8.25515C11.4315 7.64505 11.6938 6.99005 12.0228 6.35952C12.1612 6.09421 12.4091 5.09431 12.6995 5.72633C12.9233 6.21331 13.0642 6.77411 13.2694 7.27766C13.3875 7.56751 13.5555 7.76223 13.7364 8.00979C14.0324 8.41488 14.7207 8.72304 15.1769 8.8646C15.2651 8.89198 15.7347 8.93659 15.7863 8.84877C15.9501 8.57042 15.345 8.04543 15.2086 7.85941C14.8972 7.4349 14.3488 7.36375 13.9857 7.00063C13.5688 6.58373 14.1841 7.52137 14.239 7.59821C14.6307 8.14665 15.0254 8.52553 15.5014 8.9675C16.2789 9.68944 17.2291 10.1489 18.0659 10.8038C18.5684 11.1971 19.0871 11.589 19.5736 12.0148C19.9521 12.3459 19.9472 12.9008 20.3216 13.2218C20.4144 13.3013 20.3612 13.5772 20.3612 13.6888C20.3612 14.0748 20.3632 14.4189 20.472 14.7929C20.5281 14.9856 20.5694 15.3023 20.5749 15.5052C20.5827 15.7939 20.7069 16.0173 20.7174 16.2888C20.7269 16.5365 20.7018 16.881 20.8044 17.112C20.883 17.2888 21.0023 17.3867 21.0023 17.6027C21.0023 17.9484 21.0505 18.3282 20.9983 18.6673C20.9327 19.0937 20.3478 19.1382 20.005 19.1382C19.4788 19.1382 18.9435 19.2094 18.4062 19.2094C17.9269 19.2094 17.7234 19.3059 17.5672 18.8374C17.4519 18.4916 17.3708 18.1384 17.4564 17.7531C17.5832 17.1823 17.7603 16.9059 18.1846 16.5381C18.5179 16.2493 18.4975 15.5904 18.3627 15.2084C17.9721 14.1019 16.9063 13.5822 16.0475 12.8854C15.8599 12.7331 15.7623 12.5354 15.5885 12.3709C15.2731 12.0726 14.7962 11.8891 14.4171 11.6823C13.765 11.3267 13.1562 10.8245 12.5214 10.4436C12.113 10.1986 11.6689 10.2339 11.2075 10.2339C10.9925 10.2339 10.7775 10.2339 10.5625 10.2339C10.4793 10.2339 10.2633 10.2925 10.3132 10.226C10.4882 9.99259 11.3996 9.96145 11.6547 9.92521C11.9057 9.88956 12.1716 9.85951 12.4264 9.88168C12.6487 9.901 12.7872 10.0077 12.9607 10.1389C13.3258 10.4151 13.723 10.6382 14.0925 10.9067C14.9244 11.511 14.9743 12.4544 15.5964 13.2178C15.8519 13.5314 16.0532 13.8661 16.2454 14.223C16.4314 14.5684 16.7289 14.8141 16.9024 15.1768C17.1805 15.7583 17.4424 16.2907 17.8996 16.7479C18.3132 17.1615 19.0513 17.142 19.4351 17.571C19.76 17.9341 19.5003 17.7589 19.2927 17.3969C18.8547 16.6336 18.5702 15.7338 18.0342 15.0303C17.5326 14.372 16.6171 13.8296 15.9605 13.3445C15.2226 12.7994 14.5344 12.0929 13.7403 11.6348C13.2065 11.3269 12.5829 11.3038 12.0505 11.0491C11.7046 10.8837 11.1555 10.6202 10.7762 10.594C10.3132 10.5621 9.83927 10.5901 9.37524 10.5901C8.97884 10.5901 8.63766 10.7102 8.25131 10.7325C8.1947 10.7358 7.88777 10.8592 8.07719 10.8592C8.53387 10.8592 9.01803 10.6398 9.4623 10.5505C10.6319 10.3153 11.7974 10.3051 12.9845 10.3051C14.0472 10.3051 15.0718 10.3186 16.0317 10.8354C16.4145 11.0415 16.6945 11.348 16.9855 11.6625C17.3204 12.0246 17.7147 12.2553 17.8284 12.7588C17.8971 13.0631 17.9801 13.3605 18.1292 13.6373C18.4249 14.1866 18.5344 14.8081 18.6911 15.4103C18.9135 16.2645 19.0633 17.1678 19.166 18.0459C19.1998 18.3343 19.3483 18.6441 19.3639 18.9245C19.3668 18.9775 19.3639 19.0819 19.3639 18.9364C19.3639 18.5311 19.3467 18.1169 19.2175 17.7293C19.0222 17.1436 18.8554 16.5481 18.6199 15.9762C18.3094 15.2222 17.868 14.6615 17.3733 14.0133C16.3357 12.6537 15.2016 11.3986 13.7759 10.4318C12.5326 9.58857 10.5984 9.38063 9.29609 10.1547C8.28015 10.7586 7.59288 11.5439 7.00867 12.553C6.68331 13.1149 6.84204 13.9204 6.61688 14.5396C6.49293 14.8805 6.44337 15.2149 6.30028 15.5488C6.22643 15.7211 6.28612 15.9155 6.22509 16.091C6.18164 16.2159 6.11428 16.299 6.11428 16.4353C6.11428 16.6239 6.11428 16.8125 6.11428 17.0012" stroke="black" stroke-width="3" stroke-linecap="round"/>
</svg>
