<svg width="24" height="24" viewBox="0 0 24 24" fill="none" xmlns="http://www.w3.org/2000/svg">
<path d="M5.81038 19.7478C5.83176 19.4539 5.70787 19.1681 5.47873 18.9827C3.2792 17.2037 1.9 14.5525 1.9 11.5868C1.9 6.27627 6.38748 1.9 12.0098 1.9C17.6196 1.9 22.1078 6.27565 22.1078 11.5868C22.1078 16.8966 17.6092 21.2735 11.998 21.2735C11.0656 21.2735 10.1798 21.1544 9.32696 20.9277C9.15685 20.8825 8.97721 20.8882 8.81028 20.944L5.64643 22.0022L5.81038 19.7478Z" stroke="black" stroke-width="1.8" stroke-linejoin="round"/>
<ellipse cx="12" cy="11.5" rx="10" ry="9.5" fill="black"/>
<path d="M10.0248 9.46195C10.0972 9.47238 10.1575 9.48281 10.2298 9.49324C11.303 9.72266 12.4002 10.7029 13.2443 11.2869C13.7146 11.6206 14.1125 11.5893 14.5828 11.2765C15.5836 10.5882 16.6206 9.93123 17.6455 9.25338C17.9228 9.06567 18.2122 8.86753 18.5498 9.11782C18.9236 9.38895 18.6945 9.68095 18.5016 9.95208C17.4887 11.3495 16.4879 12.7469 15.463 14.1339C14.7636 15.0933 13.7749 15.2288 12.7138 14.551C11.9782 14.0713 11.2186 13.6229 10.4951 13.1223C10.0128 12.7886 9.61484 12.8303 9.15663 13.1432C8.14376 13.8314 7.11882 14.4884 6.09389 15.1663C5.81656 15.354 5.52716 15.5521 5.18954 15.2914C4.85191 15.0411 5.03278 14.7596 5.21365 14.4989C6.2627 13.0597 7.29969 11.6206 8.34874 10.1815C8.69843 9.69138 9.34956 9.39938 10.0248 9.46195Z" fill="white"/>
<ellipse cx="7.5" cy="20" rx="1.5" ry="1" fill="black"/>
</svg>
