<svg width="33" height="8" viewBox="0 0 33 8" fill="none" xmlns="http://www.w3.org/2000/svg">
<path d="M3.968 0.0609999C1.775 0.0609999 0 1.835 0 4.027C0 6.219 1.773 7.994 3.968 7.994C6.157 7.994 7.934 6.222 7.934 4.027C7.934 1.835 6.157 0.0609999 3.968 0.0609999ZM16.233 0.0609999C14.045 0.0609999 12.265 1.834 12.265 4.026C12.265 6.218 14.043 7.993 16.233 7.993C18.423 7.993 20.203 6.221 20.203 4.026C20.201 1.835 18.423 0.0609999 16.233 0.0609999ZM28.09 0.0609999C25.898 0.0609999 24.121 1.835 24.121 4.028C24.121 6.218 25.895 7.993 28.09 7.993C30.278 7.993 32.055 6.221 32.055 4.028C32.055 1.835 30.278 0.0609999 28.09 0.0609999Z" fill="#94A3B8"/>
</svg>
